<svg viewBox="1050 125 1480 480" fill="none" xmlns="http://www.w3.org/2000/svg">
<g filter="url(#filter0_d_1_4381)">
<path d="M1217.46 370.561C1222.05 370.159 1226.79 370.952 1231.45 372.397L1240.76 375.288L1238.1 384.671L1187.46 563.59C1186.27 567.975 1183.84 571.777 1180.24 574.661C1176.52 577.641 1172.14 579.111 1167.64 579.505C1163.31 579.884 1158.83 579.268 1154.73 577.021C1150.6 574.766 1147.67 571.313 1145.7 567.405L1145.66 567.327L1145.62 567.25L1064.68 399.843L1060.74 391.703L1068.44 386.97C1070.6 385.647 1072.94 384.699 1075.33 384.013C1077.65 383.183 1080.08 382.58 1082.55 382.363C1088.93 381.805 1095.15 382.872 1100.67 386.153C1105.99 389.054 1110.01 393.398 1112.71 398.789L1112.97 399.322L1113 399.389L1113.03 399.457L1160.94 503.602L1190.16 392.698L1190.18 392.631L1190.2 392.564C1191.89 386.508 1195.17 381.302 1200.11 377.39C1205.07 373.28 1211.03 371.124 1217.46 370.561ZM1393.06 367.549C1393.77 375.719 1392.88 383.944 1388.3 390.398C1383.44 397.242 1375.85 400.165 1367.94 400.856L1294.51 407.28L1297.77 444.482L1369.17 438.234L1370.04 448.197C1370.76 456.367 1369.87 464.592 1365.29 471.047C1360.47 477.826 1353.03 480.797 1345.19 481.482L1301.34 485.318L1304.73 524.05L1383.51 517.157C1391.35 516.471 1399.2 518.103 1405.12 523.943H1405.12C1410.75 529.504 1413.06 537.45 1413.77 545.62L1414.65 555.582L1286.61 566.784C1281.05 567.271 1275.65 565.995 1270.98 562.651L1270.81 562.536L1270.66 562.414C1265.9 558.716 1263.08 553.562 1262.55 547.544L1248.9 391.469C1248.37 385.507 1250.23 379.929 1254.43 375.548C1258.38 371.241 1263.51 368.843 1269.25 368.342L1392.18 357.587L1393.06 367.549ZM1073.68 395.49H1073.68H1073.68ZM1532.48 343C1541.45 342.216 1550.19 343.371 1557.1 348.312H1557.1C1557.14 348.334 1557.17 348.358 1557.2 348.381C1557.22 348.398 1557.25 348.416 1557.27 348.434H1557.27C1564.5 353.538 1568.02 361.261 1568.77 369.907L1581.4 514.252C1582.11 522.404 1579.67 529.878 1574.12 535.922L1574.11 535.921C1568.75 541.933 1561.58 545.039 1553.56 545.741L1548.19 546.211L1544.85 541.985L1457.21 431.262L1465.27 523.384C1466.03 532.03 1463.91 540.247 1457.68 546.527H1457.68C1457.66 546.547 1457.64 546.566 1457.62 546.585C1457.59 546.615 1457.56 546.647 1457.53 546.677L1457.53 546.676C1451.58 552.743 1443.17 555.399 1434.21 556.184L1424.25 557.055L1409.16 384.643C1408.43 376.317 1410.28 368.379 1415.77 362.049L1416.31 361.441C1422.2 355.023 1430.26 351.943 1439.14 351.166L1444.51 350.695L1447.86 354.925L1532.9 462.487L1522.52 343.871L1532.48 343ZM1276.34 554.146C1276.49 554.273 1276.64 554.398 1276.8 554.521C1276.95 554.632 1277.11 554.74 1277.27 554.844C1277.11 554.74 1276.95 554.632 1276.8 554.521C1276.64 554.398 1276.49 554.273 1276.34 554.146ZM1272.51 546.673L1272.58 547.271H1272.58L1272.51 546.672V546.673ZM1200.9 392.246C1200.69 392.719 1200.5 393.206 1200.32 393.706C1200.5 393.206 1200.69 392.719 1200.9 392.246ZM1290.5 476.229L1295.64 534.884V534.883L1290.5 476.229ZM1563.17 532.312C1562.91 532.489 1562.64 532.661 1562.37 532.825C1562.64 532.661 1562.91 532.489 1563.17 532.312ZM1396.84 529.968C1396.74 529.891 1396.63 529.817 1396.53 529.743C1396.63 529.817 1396.74 529.891 1396.84 529.968ZM1566.75 529.152H1566.76H1566.75ZM1388.6 527.074C1388.47 527.064 1388.33 527.055 1388.19 527.047C1388.33 527.055 1388.47 527.064 1388.6 527.074ZM1367.64 390.84L1367.07 390.895L1283.68 398.19L1288.68 455.316L1360.08 449.068L1288.68 455.315L1283.68 398.19L1367.07 390.895L1367.64 390.84H1367.64ZM1102.79 401.523C1102.93 401.746 1103.07 401.972 1103.2 402.203C1102.93 401.742 1102.66 401.296 1102.37 400.866L1102.79 401.523ZM1075.83 394.402H1075.83H1075.83ZM1077.71 393.731L1077.71 393.732L1077.71 393.731ZM1080.38 392.893C1079.95 393.01 1079.52 393.144 1079.07 393.296C1079.52 393.144 1079.95 393.01 1080.38 392.893ZM1369.77 390.536C1369.45 390.595 1369.12 390.648 1368.78 390.696C1369.12 390.648 1369.45 390.595 1369.77 390.536ZM1204.71 386.664H1204.71H1204.71ZM1205.81 385.644H1205.82H1205.81ZM1207.64 384.212H1207.64H1207.64ZM1208.61 383.568H1208.61H1208.61ZM1209.97 382.803C1209.81 382.889 1209.64 382.978 1209.47 383.068C1209.64 382.978 1209.81 382.889 1209.97 382.803ZM1227.06 381.532C1227.53 381.659 1228 381.798 1228.48 381.947C1228 381.798 1227.53 381.659 1227.06 381.532ZM1270.12 378.304L1269.49 378.372C1269.28 378.398 1269.08 378.43 1268.88 378.464C1269.28 378.395 1269.7 378.342 1270.12 378.305V378.304ZM1419.46 376.527C1419.39 376.866 1419.33 377.211 1419.28 377.56C1419.33 377.211 1419.39 376.866 1419.46 376.527ZM1383.17 375.166C1383.14 375.532 1383.1 375.891 1383.06 376.244C1383.1 375.891 1383.14 375.532 1383.17 375.166ZM1419.7 375.525H1419.7H1419.7ZM1383.26 373.448V373.449V373.448ZM1383.15 369.085C1383.16 369.304 1383.18 369.522 1383.19 369.738C1383.22 370.171 1383.24 370.597 1383.25 371.017L1383.25 371.016C1383.23 370.387 1383.2 369.743 1383.15 369.084V369.085ZM1424.4 367.463C1424.15 367.705 1423.91 367.955 1423.67 368.211H1423.67C1423.91 367.955 1424.15 367.705 1424.4 367.463ZM1429.08 364.077H1429.08H1429.08ZM1555.82 361.128C1555.98 361.389 1556.14 361.656 1556.29 361.929L1556.05 361.498C1555.97 361.373 1555.9 361.25 1555.82 361.128ZM1551.4 356.522C1551.53 356.617 1551.67 356.714 1551.8 356.812C1552.07 357.009 1552.32 357.213 1552.58 357.424L1552.19 357.113C1551.94 356.91 1551.67 356.713 1551.4 356.522ZM1547.9 354.58C1548.11 354.666 1548.31 354.756 1548.51 354.848C1548.31 354.756 1548.11 354.666 1547.9 354.58ZM1545.37 353.722C1545.73 353.818 1546.07 353.921 1546.42 354.032C1546.07 353.921 1545.73 353.818 1545.37 353.722ZM1538.22 352.781H1538.23H1538.22ZM1397.65 530.644C1397.59 530.593 1397.54 530.542 1397.48 530.493C1397.54 530.542 1397.59 530.593 1397.65 530.644ZM1397.04 530.126C1396.97 530.073 1396.9 530.019 1396.84 529.968C1396.9 530.019 1396.97 530.073 1397.04 530.126ZM1567.45 528.355C1567.43 528.376 1567.42 528.396 1567.4 528.416C1567.42 528.396 1567.43 528.376 1567.45 528.355ZM1389.03 527.11C1388.89 527.097 1388.75 527.085 1388.6 527.074C1388.75 527.085 1388.89 527.097 1389.03 527.11ZM1571.49 518.06C1571.5 517.943 1571.5 517.826 1571.51 517.708C1571.5 517.826 1571.5 517.943 1571.49 518.06Z" fill="#C9A84C"/>
</g>
<g filter="url(#filter1_d_1_4381)">
<path d="M2421.31 373.749C2425.45 371.535 2429.97 370.949 2434.33 371.331C2438.65 371.709 2442.88 373.119 2446.49 376.008C2449.86 378.705 2452.1 382.224 2453.48 386.022L2453.75 386.786L2453.77 386.857L2453.8 386.929L2501.89 538.796L2502.17 539.685C2503.53 544.137 2504.15 548.671 2503.75 553.193C2503.15 560.073 2500.36 566.178 2495.43 571.044C2490.38 576.026 2483.98 578.671 2476.94 579.449L2468.75 580.354L2466.29 572.495L2451.02 523.669L2391.18 518.433L2367.66 563.866L2363.88 571.18L2355.97 568.866C2349.31 566.917 2343.5 563.379 2339.35 557.839L2339.27 557.736L2339.2 557.633C2335.14 551.909 2333.52 545.307 2334.13 538.353C2334.55 533.565 2336.08 528.96 2338.41 524.596L2412.19 383.289C2414.19 379.375 2417.17 375.962 2421.31 373.749ZM2486.52 565.549C2486.7 565.417 2486.87 565.281 2487.04 565.142C2486.87 565.281 2486.7 565.417 2486.52 565.549ZM2490.97 560.79C2490.25 561.905 2489.39 562.952 2488.4 563.929L2488.69 563.641C2489.56 562.747 2490.32 561.796 2490.97 560.79ZM2299.88 367.316C2306.99 362.334 2315.71 360.953 2324.82 361.75L2334.78 362.621L2319.63 535.8C2318.86 544.593 2315.06 552.217 2307.74 557.35L2307.72 557.361L2307.7 557.373C2300.71 562.231 2292.06 563.47 2283.08 562.684L2273.12 561.812L2288.27 388.635C2289.03 380.004 2292.63 372.372 2299.88 367.316ZM2492.16 558.624C2492.26 558.409 2492.35 558.192 2492.44 557.974C2492.35 558.192 2492.26 558.409 2492.16 558.624ZM2357.33 558.804C2357.4 558.828 2357.47 558.852 2357.54 558.876C2357.47 558.852 2357.4 558.828 2357.33 558.804ZM2356.11 558.345C2356.29 558.419 2356.48 558.492 2356.67 558.563C2356.48 558.492 2356.29 558.419 2356.11 558.345ZM2147.05 353.521C2154.05 348.678 2162.91 347.585 2172.03 348.383L2181.99 349.254L2168.03 508.9L2236.36 514.878C2244.48 515.589 2251.79 518.885 2256.74 525.618C2261.67 532.132 2262.93 540.252 2262.21 548.508L2261.34 558.47L2142.99 548.115C2137 547.59 2131.8 544.922 2127.82 540.49L2127.59 540.234L2127.37 539.963C2123.7 535.266 2121.97 529.687 2122.5 523.692L2135.48 375.267C2136.25 366.562 2139.67 358.629 2147.05 353.521ZM2355.27 557.99C2355.51 558.097 2355.75 558.2 2356 558.301C2355.75 558.2 2355.51 558.097 2355.27 557.99ZM2352.92 556.78C2353.13 556.907 2353.35 557.031 2353.58 557.152C2353.35 557.031 2353.13 556.907 2352.92 556.78ZM2493.39 554.925C2493.34 555.149 2493.29 555.371 2493.24 555.591C2493.29 555.371 2493.34 555.149 2493.39 554.925ZM2493.64 553.58C2493.68 553.306 2493.72 553.029 2493.75 552.749L2493.75 552.75C2493.72 553.029 2493.68 553.306 2493.64 553.58ZM2348.14 552.823C2348.3 553.012 2348.47 553.198 2348.64 553.381C2348.47 553.198 2348.3 553.012 2348.14 552.823ZM2347.35 551.846C2347.59 552.163 2347.84 552.472 2348.1 552.773C2347.84 552.472 2347.59 552.163 2347.35 551.845V551.846ZM2303.62 547.882C2303.54 547.957 2303.45 548.031 2303.36 548.105C2303.45 548.031 2303.54 547.957 2303.62 547.882ZM2493.44 545.987H2493.44H2493.44ZM2344.15 538.617L2344.15 538.618L2344.15 538.617ZM2251.82 538.54V538.541V538.54ZM2143.23 538.084C2143.44 538.111 2143.65 538.135 2143.86 538.153C2143.65 538.135 2143.44 538.111 2143.23 538.084ZM2344.91 534.926C2344.79 535.341 2344.68 535.754 2344.58 536.166C2344.68 535.754 2344.79 535.341 2344.91 534.926ZM2309.67 534.928H2309.67L2323.95 371.712L2323.94 371.711L2309.67 534.928ZM2248.77 531.655H2248.76C2249.31 532.378 2249.8 533.152 2250.22 533.978H2250.22C2249.8 533.152 2249.31 532.378 2248.77 531.655ZM2247.61 530.234C2247.51 530.124 2247.41 530.015 2247.3 529.908C2247.41 530.015 2247.51 530.124 2247.61 530.234ZM2132.42 525.197C2132.41 525.4 2132.41 525.603 2132.41 525.804C2132.41 525.603 2132.41 525.401 2132.42 525.198V525.197ZM2145.45 376.139H2145.45H2145.45ZM2452.98 492.986L2452.98 492.987L2427.38 406.716L2452.98 492.986ZM2410.11 479.198L2439.21 481.745L2427.9 443.637L2410.11 479.198ZM2425.27 407.302H2425.27H2425.27ZM2171.16 358.345H2171.16H2171.16ZM2421.8 386.603C2421.54 387.017 2421.29 387.455 2421.06 387.917C2421.29 387.456 2421.54 387.018 2421.8 386.604V386.603ZM2298.74 386.173C2298.67 386.475 2298.61 386.782 2298.55 387.093C2298.61 386.782 2298.67 386.475 2298.74 386.173ZM2303.3 377.451C2303.44 377.314 2303.58 377.179 2303.72 377.047C2303.58 377.179 2303.44 377.314 2303.3 377.451ZM2304.64 376.243C2304.96 375.987 2305.29 375.741 2305.63 375.505H2305.62L2305.22 375.795C2305.02 375.94 2304.83 376.09 2304.64 376.243ZM2486.19 565.792C2486.29 565.723 2486.38 565.654 2486.48 565.584C2486.38 565.654 2486.29 565.723 2486.19 565.792ZM2491.64 559.661C2491.69 559.575 2491.73 559.488 2491.78 559.401C2491.73 559.488 2491.69 559.575 2491.64 559.661ZM2492.01 558.948C2492.05 558.865 2492.09 558.781 2492.13 558.697C2492.09 558.781 2492.05 558.865 2492.01 558.948ZM2354.86 557.805C2354.99 557.862 2355.11 557.919 2355.24 557.975C2355.11 557.919 2354.99 557.862 2354.86 557.805ZM2492.78 557.094C2492.8 557.022 2492.83 556.95 2492.85 556.878C2492.83 556.95 2492.8 557.022 2492.78 557.094ZM2493.58 553.986C2493.59 553.914 2493.6 553.842 2493.61 553.769C2493.6 553.842 2493.59 553.914 2493.58 553.986ZM2346.07 549.766C2346.1 549.82 2346.13 549.874 2346.16 549.928C2346.13 549.874 2346.1 549.82 2346.07 549.766ZM2248.08 530.774C2248.02 530.707 2247.97 530.64 2247.91 530.574C2247.97 530.64 2248.02 530.707 2248.08 530.774ZM2247.84 530.498C2247.77 530.409 2247.69 530.321 2247.61 530.234C2247.69 530.321 2247.77 530.409 2247.84 530.498ZM2443.89 388.939C2443.9 388.958 2443.91 388.977 2443.92 388.996C2443.91 388.977 2443.9 388.958 2443.89 388.939ZM2443.66 388.389C2443.61 388.287 2443.57 388.185 2443.52 388.086C2443.57 388.185 2443.61 388.287 2443.66 388.389ZM2304 376.788C2303.91 376.874 2303.81 376.959 2303.72 377.047C2303.81 376.959 2303.91 376.874 2304 376.788Z" fill="#C9A84C"/>
</g>
<path d="M1841.49 252.273C1869.6 252.273 1897.06 258.578 1921.98 270.402L1928.96 282.5L2015.56 432.5L2103.03 584H1579.95L1667.42 432.5L1754.02 282.5L1761.01 270.402C1785.93 258.578 1813.38 252.273 1841.49 252.273ZM1754.89 483H1928.1L1841.49 333L1754.89 483ZM1877.02 192.536C1865.32 190.857 1853.45 190 1841.49 190C1829.53 190 1817.66 190.856 1805.96 192.536L1841.49 131L1877.02 192.536Z" fill="#C9A84C"/>
<path d="M2002.33 402.025C2002.41 404.013 2002.45 406.004 2002.45 408L2002.43 405.994C2002.42 404.669 2002.38 403.346 2002.33 402.025ZM1679.67 401.991H1679.67H1679.67ZM1841 203C1895.37 203 1947.51 224.598 1985.96 263.043C2022.04 299.124 2043.28 347.271 2045.76 398H2012.15C2009.71 356.177 1992.02 316.558 1962.23 286.771C1930.08 254.618 1886.47 236.555 1841 236.555C1795.53 236.555 1751.92 254.618 1719.77 286.771C1689.98 316.558 1672.29 356.177 1669.85 398H1636.24C1638.72 347.271 1659.96 299.124 1696.04 263.043C1734.49 224.598 1786.63 203 1841 203ZM2002.01 396.112C2002.03 396.49 2002.06 396.867 2002.08 397.245C2002.06 396.867 2002.03 396.49 2002.01 396.112ZM2001.85 394.145C2001.88 394.461 2001.9 394.779 2001.93 395.096C2001.9 394.779 2001.88 394.461 2001.85 394.145ZM2001.67 392.167C2001.7 392.499 2001.73 392.832 2001.76 393.164C2001.73 392.832 2001.7 392.499 2001.67 392.167ZM2001.46 390.167C2001.48 390.406 2001.51 390.645 2001.53 390.884C2001.51 390.645 2001.48 390.406 2001.46 390.167ZM2001.23 388.235C2001.28 388.62 2001.32 389.005 2001.37 389.39C2001.32 389.005 2001.28 388.62 2001.23 388.235ZM2000.96 386.162C2001.02 386.604 2001.08 387.047 2001.13 387.489C2001.08 387.047 2001.02 386.604 2000.96 386.162ZM2000.7 384.326C2000.77 384.789 2000.83 385.252 2000.9 385.715C2000.83 385.252 2000.77 384.789 2000.7 384.326ZM2000.41 382.435C2000.45 382.726 2000.5 383.018 2000.54 383.311C2000.5 383.018 2000.45 382.726 2000.41 382.435ZM1682.31 378.299C1682.19 378.947 1682.07 379.597 1681.96 380.247L1681.63 382.2C1681.73 381.548 1681.84 380.897 1681.96 380.247L1682.31 378.299ZM2000.07 380.42C2000.13 380.752 2000.18 381.085 2000.24 381.418C2000.18 381.085 2000.13 380.752 2000.07 380.42ZM1999.72 378.486C1999.8 378.888 1999.87 379.29 1999.94 379.692C1999.87 379.29 1999.8 378.888 1999.72 378.486ZM1999.35 376.557C1999.43 376.939 1999.5 377.323 1999.58 377.706C1999.5 377.323 1999.43 376.939 1999.35 376.557ZM1998.97 374.674C1999.04 375.025 1999.11 375.377 1999.18 375.729C1999.11 375.377 1999.04 375.025 1998.97 374.674ZM1998.56 372.793C1998.62 373.076 1998.68 373.359 1998.75 373.643C1998.68 373.359 1998.62 373.076 1998.56 372.793ZM1998.11 370.856C1998.19 371.162 1998.25 371.468 1998.33 371.773C1998.25 371.468 1998.19 371.162 1998.11 370.856ZM1997.64 368.924C1997.73 369.26 1997.81 369.596 1997.89 369.933C1997.81 369.596 1997.73 369.26 1997.64 368.924ZM1684.92 366.736H1684.92H1684.92ZM1997.15 366.995C1997.25 367.363 1997.34 367.731 1997.43 368.1C1997.34 367.731 1997.25 367.363 1997.15 366.995ZM1996.66 365.173C1996.75 365.502 1996.84 365.831 1996.93 366.16C1996.84 365.831 1996.75 365.502 1996.66 365.173ZM1996.13 363.301C1996.22 363.598 1996.3 363.895 1996.38 364.192C1996.3 363.895 1996.22 363.598 1996.13 363.301ZM1995.58 361.445C1995.67 361.725 1995.75 362.005 1995.83 362.285C1995.75 362.005 1995.67 361.725 1995.58 361.445ZM1994.98 359.495C1995.09 359.818 1995.19 360.142 1995.29 360.466C1995.19 360.142 1995.09 359.818 1994.98 359.495ZM1994.38 357.621C1994.5 357.975 1994.61 358.328 1994.73 358.683C1994.61 358.328 1994.5 357.975 1994.38 357.621ZM1689.68 351.715C1689.23 352.945 1688.78 354.181 1688.36 355.423C1688.78 354.181 1689.23 352.945 1689.68 351.715ZM1993.74 355.722C1993.87 356.091 1994 356.461 1994.12 356.832C1994 356.461 1993.87 356.091 1993.74 355.722ZM1993.1 353.87C1993.24 354.264 1993.38 354.659 1993.51 355.054C1993.38 354.659 1993.24 354.264 1993.1 353.87ZM1992.44 352.066C1992.56 352.393 1992.68 352.721 1992.8 353.049C1992.68 352.721 1992.56 352.393 1992.44 352.066ZM1991.76 350.262C1991.9 350.605 1992.03 350.949 1992.16 351.293C1992.03 350.949 1991.9 350.605 1991.76 350.262ZM1991.07 348.473C1991.2 348.796 1991.32 349.119 1991.45 349.443C1991.32 349.119 1991.2 348.796 1991.07 348.473ZM1990.31 346.596C1990.45 346.934 1990.59 347.272 1990.72 347.611C1990.59 347.272 1990.45 346.934 1990.31 346.596ZM1989.6 344.907C1989.73 345.212 1989.86 345.516 1989.99 345.821C1989.86 345.516 1989.73 345.212 1989.6 344.907ZM1988.81 343.067C1988.94 343.358 1989.06 343.65 1989.19 343.941C1989.06 343.65 1988.94 343.358 1988.81 343.067ZM1988 341.263C1988.15 341.582 1988.29 341.902 1988.43 342.222C1988.29 341.902 1988.15 341.582 1988 341.263ZM1695.89 337.242C1695.6 337.832 1695.32 338.424 1695.04 339.018C1695.32 338.424 1695.6 337.831 1695.89 337.241V337.242ZM1987.15 339.419C1987.31 339.764 1987.47 340.11 1987.63 340.456C1987.47 340.11 1987.31 339.764 1987.15 339.419ZM1986.36 337.749C1986.51 338.062 1986.66 338.376 1986.81 338.69C1986.66 338.376 1986.51 338.062 1986.36 337.749ZM1985.5 336.013C1985.65 336.303 1985.79 336.593 1985.94 336.884C1985.79 336.593 1985.65 336.303 1985.5 336.013ZM1699.51 330.243C1698.88 331.395 1698.26 332.554 1697.66 333.721C1698.26 332.554 1698.88 331.395 1699.51 330.243ZM1984.59 334.213C1984.75 334.513 1984.9 334.813 1985.05 335.113C1984.9 334.813 1984.75 334.513 1984.59 334.213ZM1983.68 332.468C1983.86 332.795 1984.03 333.122 1984.2 333.45C1984.03 333.122 1983.86 332.795 1983.68 332.468ZM1982.74 330.711C1982.91 331.032 1983.09 331.354 1983.26 331.676C1983.09 331.354 1982.91 331.032 1982.74 330.711ZM1981.79 328.994C1981.98 329.333 1982.17 329.673 1982.36 330.014C1982.17 329.673 1981.98 329.333 1981.79 328.994ZM1980.83 327.306C1981.01 327.626 1981.2 327.948 1981.38 328.27C1981.2 327.948 1981.01 327.626 1980.83 327.306ZM1979.86 325.65C1980.04 325.961 1980.23 326.271 1980.41 326.583C1980.23 326.271 1980.04 325.961 1979.86 325.65ZM1978.88 324.026C1979.05 324.297 1979.21 324.567 1979.38 324.839C1979.21 324.567 1979.05 324.297 1978.88 324.026ZM1977.84 322.34C1978.01 322.601 1978.17 322.861 1978.33 323.123C1978.17 322.861 1978.01 322.601 1977.84 322.34ZM1976.76 320.637C1976.95 320.931 1977.14 321.226 1977.33 321.521C1977.14 321.226 1976.95 320.931 1976.76 320.637ZM1975.67 318.964C1975.88 319.275 1976.08 319.585 1976.29 319.897C1976.08 319.585 1975.88 319.275 1975.67 318.964ZM1974.59 317.344C1974.79 317.647 1975 317.95 1975.2 318.255C1975 317.95 1974.79 317.647 1974.59 317.344ZM1710.06 313.551C1709.68 314.086 1709.3 314.624 1708.92 315.164L1707.79 316.791C1708.53 315.702 1709.29 314.622 1710.06 313.551ZM1973.46 315.699C1973.65 315.977 1973.84 316.255 1974.04 316.534C1973.84 316.255 1973.65 315.977 1973.46 315.699ZM1972.43 314.251C1972.61 314.496 1972.78 314.74 1972.96 314.985C1972.78 314.74 1972.61 314.496 1972.43 314.251ZM1971.23 312.592C1971.43 312.856 1971.62 313.12 1971.81 313.385C1971.62 313.12 1971.43 312.856 1971.23 312.592ZM1743.36 279.424C1737.57 283.825 1732.04 288.637 1726.84 293.841C1721.64 299.045 1716.83 304.567 1712.42 310.362C1713.22 309.309 1714.04 308.264 1714.87 307.229C1715.69 306.193 1716.53 305.167 1717.39 304.15C1718.24 303.134 1719.11 302.127 1719.99 301.13C1720.43 300.631 1720.87 300.135 1721.32 299.642C1723.11 297.667 1724.95 295.733 1726.84 293.841C1728.73 291.949 1730.67 290.108 1732.64 288.32C1733.14 287.873 1733.63 287.43 1734.13 286.989C1735.13 286.109 1736.13 285.242 1737.15 284.388C1738.17 283.534 1739.19 282.693 1740.23 281.865C1741.26 281.038 1742.31 280.224 1743.36 279.424ZM1969.93 310.835C1970.17 311.157 1970.41 311.479 1970.65 311.803C1970.41 311.479 1970.17 311.157 1969.93 310.835ZM1968.86 309.427C1969.07 309.707 1969.29 309.986 1969.5 310.268C1969.29 309.986 1969.07 309.707 1968.86 309.427ZM1967.47 307.649C1967.73 307.985 1968 308.32 1968.26 308.657C1968 308.32 1967.73 307.985 1967.47 307.649ZM1966.49 306.427C1966.68 306.665 1966.87 306.903 1967.06 307.143C1966.87 306.903 1966.68 306.665 1966.49 306.427ZM1965.35 305.036C1965.49 305.21 1965.64 305.383 1965.78 305.558C1965.64 305.383 1965.49 305.21 1965.35 305.036ZM1963.82 303.216C1964.06 303.501 1964.3 303.785 1964.54 304.071C1964.3 303.785 1964.06 303.501 1963.82 303.216ZM1962.47 301.661C1962.74 301.971 1963.02 302.279 1963.28 302.591C1963.02 302.279 1962.74 301.971 1962.47 301.661ZM1938.64 279.425C1939.69 280.225 1940.74 281.038 1941.77 281.865C1942.81 282.693 1943.83 283.534 1944.85 284.388C1948.41 287.377 1951.85 290.529 1955.16 293.841C1949.96 288.637 1944.43 283.826 1938.64 279.425ZM1753.08 272.593C1750.87 274.028 1748.69 275.519 1746.55 277.064C1748.16 275.905 1749.78 274.777 1751.43 273.68L1753.08 272.593ZM1928.92 272.593C1931.13 274.028 1933.31 275.519 1935.45 277.064C1933.84 275.905 1932.21 274.777 1930.57 273.68L1928.92 272.593ZM1772.02 262.034C1767.27 264.278 1762.63 266.756 1758.11 269.458L1756.42 270.481C1757.54 269.792 1758.67 269.117 1759.81 268.455C1760.95 267.794 1762.09 267.146 1763.24 266.513C1764.4 265.88 1765.55 265.261 1766.72 264.656C1767.3 264.354 1767.89 264.056 1768.48 263.761C1769.65 263.171 1770.83 262.595 1772.02 262.034ZM1925.58 270.481C1919.41 266.688 1913 263.32 1906.4 260.396C1908.8 261.459 1911.18 262.581 1913.52 263.761C1914.11 264.056 1914.7 264.354 1915.28 264.656C1916.45 265.261 1917.6 265.88 1918.76 266.513C1919.91 267.146 1921.05 267.794 1922.19 268.455C1922.76 268.786 1923.33 269.119 1923.89 269.457L1925.58 270.481ZM1775.6 260.396H1775.6H1775.6ZM1788.42 255.355C1787.18 255.783 1785.95 256.227 1784.71 256.685C1785.95 256.227 1787.18 255.783 1788.42 255.355ZM1893.58 255.356C1894.82 255.784 1896.05 256.226 1897.29 256.684C1896.05 256.226 1894.82 255.784 1893.58 255.356ZM1799.74 251.916V251.917V251.916ZM1882.26 251.917V251.916V251.917ZM1815.2 248.629C1814.55 248.734 1813.9 248.845 1813.25 248.958L1811.3 249.31C1811.95 249.188 1812.6 249.071 1813.25 248.957L1815.2 248.629ZM1866.8 248.629C1867.45 248.734 1868.1 248.844 1868.75 248.957L1870.7 249.31C1870.05 249.188 1869.4 249.071 1868.75 248.958L1866.8 248.629ZM1819.12 248.043V248.044V248.043ZM1847.01 246.667V246.666V246.667ZM2002.14 398.058C2002.18 398.7 2002.21 399.344 2002.25 399.987C2002.21 399.344 2002.18 398.7 2002.14 398.058ZM2002.25 400.03C2002.28 400.653 2002.3 401.277 2002.33 401.901C2002.3 401.277 2002.28 400.653 2002.25 400.03ZM1961.22 300.25C1961.48 300.541 1961.75 300.832 1962 301.125C1961.75 300.832 1961.48 300.541 1961.22 300.25Z" fill="#C9A84C"/>
<defs>
<filter id="filter0_d_1_4381" x="1060.74" y="342.775" width="535.781" height="246.834" filterUnits="userSpaceOnUse" color-interpolation-filters="sRGB">
<feFlood flood-opacity="0" result="BackgroundImageFix"/>
<feColorMatrix in="SourceAlpha" type="matrix" values="0 0 0 0 0 0 0 0 0 0 0 0 0 0 0 0 0 0 127 0" result="hardAlpha"/>
<feOffset dx="10" dy="5"/>
<feGaussianBlur stdDeviation="2.5"/>
<feComposite in2="hardAlpha" operator="out"/>
<feColorMatrix type="matrix" values="0 0 0 0 0 0 0 0 0 0 0 0 0 0 0 0 0 0 0.25 0"/>
<feBlend mode="normal" in2="BackgroundImageFix" result="effect1_dropShadow_1_4381"/>
<feBlend mode="normal" in="SourceGraphic" in2="effect1_dropShadow_1_4381" result="shape"/>
</filter>
<filter id="filter1_d_1_4381" x="2122.41" y="348.145" width="396.462" height="242.209" filterUnits="userSpaceOnUse" color-interpolation-filters="sRGB">
<feFlood flood-opacity="0" result="BackgroundImageFix"/>
<feColorMatrix in="SourceAlpha" type="matrix" values="0 0 0 0 0 0 0 0 0 0 0 0 0 0 0 0 0 0 127 0" result="hardAlpha"/>
<feOffset dx="10" dy="5"/>
<feGaussianBlur stdDeviation="2.5"/>
<feComposite in2="hardAlpha" operator="out"/>
<feColorMatrix type="matrix" values="0 0 0 0 0 0 0 0 0 0 0 0 0 0 0 0 0 0 0.25 0"/>
<feBlend mode="normal" in2="BackgroundImageFix" result="effect1_dropShadow_1_4381"/>
<feBlend mode="normal" in="SourceGraphic" in2="effect1_dropShadow_1_4381" result="shape"/>
</filter>
</defs>
</svg>
